<mxfile host="app.diagrams.net" modified="2024-07-26T09:44:37.151Z" agent="Mozilla/5.0 (Macintosh; Intel Mac OS X 10_15_7) AppleWebKit/537.36 (KHTML, like Gecko) Chrome/126.0.0.0 Safari/537.36" etag="Gv1T1Pl-oXCFo-uypUyA" version="24.0.5" type="github">
  <diagram name="第 1 页" id="a_pp5IFN9cv176m5aQwi">
    <mxGraphModel dx="2282" dy="361" grid="0" gridSize="10" guides="1" tooltips="1" connect="1" arrows="1" fold="1" page="0" pageScale="1" pageWidth="827" pageHeight="1169" math="0" shadow="0">
      <root>
        <mxCell id="0" />
        <mxCell id="1" parent="0" />
        <mxCell id="3faUZpva91Ia60u5oDlE-43" value="" style="whiteSpace=wrap;html=1;rounded=0;dashed=1;" vertex="1" parent="1">
          <mxGeometry x="542" y="1181.25" width="933" height="361.5" as="geometry" />
        </mxCell>
        <mxCell id="3faUZpva91Ia60u5oDlE-5" value="" style="edgeStyle=none;curved=1;rounded=0;orthogonalLoop=1;jettySize=auto;html=1;fontSize=12;startSize=8;endSize=8;" edge="1" parent="1" source="3faUZpva91Ia60u5oDlE-1" target="3faUZpva91Ia60u5oDlE-4">
          <mxGeometry relative="1" as="geometry" />
        </mxCell>
        <mxCell id="3faUZpva91Ia60u5oDlE-26" style="edgeStyle=none;curved=1;rounded=0;orthogonalLoop=1;jettySize=auto;html=1;fontSize=12;startSize=8;endSize=8;" edge="1" parent="1" source="3faUZpva91Ia60u5oDlE-1" target="3faUZpva91Ia60u5oDlE-23">
          <mxGeometry relative="1" as="geometry" />
        </mxCell>
        <mxCell id="3faUZpva91Ia60u5oDlE-1" value="根据业务线查询爆单区域" style="rounded=0;whiteSpace=wrap;html=1;" vertex="1" parent="1">
          <mxGeometry x="-210" y="584" width="160" height="80" as="geometry" />
        </mxCell>
        <mxCell id="3faUZpva91Ia60u5oDlE-3" style="edgeStyle=none;curved=1;rounded=0;orthogonalLoop=1;jettySize=auto;html=1;fontSize=12;startSize=8;endSize=8;" edge="1" parent="1" source="3faUZpva91Ia60u5oDlE-2" target="3faUZpva91Ia60u5oDlE-1">
          <mxGeometry relative="1" as="geometry" />
        </mxCell>
        <mxCell id="3faUZpva91Ia60u5oDlE-2" value="定时任务开始" style="ellipse;whiteSpace=wrap;html=1;fillColor=#f5f5f5;fontColor=#333333;strokeColor=#666666;" vertex="1" parent="1">
          <mxGeometry x="-170" y="409" width="80" height="80" as="geometry" />
        </mxCell>
        <mxCell id="3faUZpva91Ia60u5oDlE-7" value="" style="edgeStyle=none;curved=1;rounded=0;orthogonalLoop=1;jettySize=auto;html=1;fontSize=12;startSize=8;endSize=8;" edge="1" parent="1" source="3faUZpva91Ia60u5oDlE-4" target="3faUZpva91Ia60u5oDlE-6">
          <mxGeometry relative="1" as="geometry" />
        </mxCell>
        <mxCell id="3faUZpva91Ia60u5oDlE-9" value="" style="edgeStyle=orthogonalEdgeStyle;rounded=0;orthogonalLoop=1;jettySize=auto;html=1;fontSize=12;startSize=8;endSize=8;" edge="1" parent="1" source="3faUZpva91Ia60u5oDlE-4" target="3faUZpva91Ia60u5oDlE-8">
          <mxGeometry relative="1" as="geometry">
            <Array as="points">
              <mxPoint x="170" y="824" />
              <mxPoint x="170" y="442" />
            </Array>
          </mxGeometry>
        </mxCell>
        <mxCell id="3faUZpva91Ia60u5oDlE-4" value="根据业务线、区域发送消息" style="rounded=0;whiteSpace=wrap;html=1;" vertex="1" parent="1">
          <mxGeometry x="-210" y="784" width="160" height="80" as="geometry" />
        </mxCell>
        <mxCell id="3faUZpva91Ia60u5oDlE-6" value="结束" style="ellipse;whiteSpace=wrap;html=1;rounded=0;fillColor=#f5f5f5;fontColor=#333333;strokeColor=#666666;" vertex="1" parent="1">
          <mxGeometry x="-170" y="984" width="80" height="80" as="geometry" />
        </mxCell>
        <mxCell id="3faUZpva91Ia60u5oDlE-12" value="" style="edgeStyle=none;curved=1;rounded=0;orthogonalLoop=1;jettySize=auto;html=1;fontSize=12;startSize=8;endSize=8;" edge="1" parent="1" source="3faUZpva91Ia60u5oDlE-8" target="3faUZpva91Ia60u5oDlE-11">
          <mxGeometry relative="1" as="geometry" />
        </mxCell>
        <mxCell id="3faUZpva91Ia60u5oDlE-8" value="消息监听" style="ellipse;whiteSpace=wrap;html=1;rounded=0;fillColor=#f5f5f5;fontColor=#333333;strokeColor=#666666;" vertex="1" parent="1">
          <mxGeometry x="299" y="402" width="80" height="80" as="geometry" />
        </mxCell>
        <mxCell id="3faUZpva91Ia60u5oDlE-30" style="edgeStyle=none;curved=1;rounded=0;orthogonalLoop=1;jettySize=auto;html=1;fontSize=12;startSize=8;endSize=8;" edge="1" parent="1" source="3faUZpva91Ia60u5oDlE-11" target="3faUZpva91Ia60u5oDlE-29">
          <mxGeometry relative="1" as="geometry" />
        </mxCell>
        <mxCell id="3faUZpva91Ia60u5oDlE-32" value="" style="edgeStyle=none;curved=1;rounded=0;orthogonalLoop=1;jettySize=auto;html=1;fontSize=12;startSize=8;endSize=8;" edge="1" parent="1" source="3faUZpva91Ia60u5oDlE-11" target="3faUZpva91Ia60u5oDlE-31">
          <mxGeometry relative="1" as="geometry" />
        </mxCell>
        <mxCell id="3faUZpva91Ia60u5oDlE-11" value="根据区域查询商家列表-A" style="whiteSpace=wrap;html=1;rounded=0;" vertex="1" parent="1">
          <mxGeometry x="279" y="612" width="120" height="60" as="geometry" />
        </mxCell>
        <mxCell id="3faUZpva91Ia60u5oDlE-13" value="bm_exp_poi_info" style="shape=cylinder3;whiteSpace=wrap;html=1;boundedLbl=1;backgroundOutline=1;size=15;fillColor=#dae8fc;strokeColor=#6c8ebf;" vertex="1" parent="1">
          <mxGeometry x="-525" y="513" width="60" height="80" as="geometry" />
        </mxCell>
        <mxCell id="3faUZpva91Ia60u5oDlE-23" value="&lt;p style=&quot;margin: 0px; font-variant-numeric: normal; font-variant-east-asian: normal; font-variant-alternates: normal; font-kerning: auto; font-optical-sizing: auto; font-feature-settings: normal; font-variation-settings: normal; font-variant-position: normal; font-stretch: normal; font-size: 13px; line-height: normal; font-family: &amp;quot;Helvetica Neue&amp;quot;; text-align: start;&quot; class=&quot;p1&quot;&gt;bm_exp_area_info&lt;/p&gt;" style="shape=cylinder3;whiteSpace=wrap;html=1;boundedLbl=1;backgroundOutline=1;size=15;fillColor=#dae8fc;strokeColor=#6c8ebf;" vertex="1" parent="1">
          <mxGeometry x="-525" y="629" width="60" height="80" as="geometry" />
        </mxCell>
        <mxCell id="3faUZpva91Ia60u5oDlE-25" style="edgeStyle=none;curved=1;rounded=0;orthogonalLoop=1;jettySize=auto;html=1;entryX=1;entryY=0.5;entryDx=0;entryDy=0;entryPerimeter=0;fontSize=12;startSize=8;endSize=8;" edge="1" parent="1" source="3faUZpva91Ia60u5oDlE-1" target="3faUZpva91Ia60u5oDlE-13">
          <mxGeometry relative="1" as="geometry" />
        </mxCell>
        <mxCell id="3faUZpva91Ia60u5oDlE-27" value="混合送、企客一体化" style="edgeLabel;html=1;align=center;verticalAlign=middle;resizable=0;points=[];fontSize=12;" vertex="1" connectable="0" parent="3faUZpva91Ia60u5oDlE-25">
          <mxGeometry x="0.0633" relative="1" as="geometry">
            <mxPoint as="offset" />
          </mxGeometry>
        </mxCell>
        <mxCell id="3faUZpva91Ia60u5oDlE-29" value="bm_exp_poi_info" style="shape=cylinder3;whiteSpace=wrap;html=1;boundedLbl=1;backgroundOutline=1;size=15;fillColor=#dae8fc;strokeColor=#6c8ebf;" vertex="1" parent="1">
          <mxGeometry x="531" y="602" width="60" height="80" as="geometry" />
        </mxCell>
        <mxCell id="3faUZpva91Ia60u5oDlE-34" value="" style="edgeStyle=none;curved=1;rounded=0;orthogonalLoop=1;jettySize=auto;html=1;fontSize=12;startSize=8;endSize=8;" edge="1" parent="1" source="3faUZpva91Ia60u5oDlE-31" target="3faUZpva91Ia60u5oDlE-33">
          <mxGeometry relative="1" as="geometry" />
        </mxCell>
        <mxCell id="3faUZpva91Ia60u5oDlE-36" value="" style="edgeStyle=none;curved=1;rounded=0;orthogonalLoop=1;jettySize=auto;html=1;fontSize=12;startSize=8;endSize=8;" edge="1" parent="1" source="3faUZpva91Ia60u5oDlE-31" target="3faUZpva91Ia60u5oDlE-35">
          <mxGeometry relative="1" as="geometry" />
        </mxCell>
        <mxCell id="3faUZpva91Ia60u5oDlE-31" value="通过区域接口查询区域所在商家列表-B" style="whiteSpace=wrap;html=1;rounded=0;" vertex="1" parent="1">
          <mxGeometry x="279" y="792" width="120" height="60" as="geometry" />
        </mxCell>
        <mxCell id="3faUZpva91Ia60u5oDlE-33" value="区域接口" style="shape=tape;whiteSpace=wrap;html=1;rounded=0;fillColor=#d5e8d4;strokeColor=#82b366;" vertex="1" parent="1">
          <mxGeometry x="519" y="772" width="120" height="100" as="geometry" />
        </mxCell>
        <mxCell id="3faUZpva91Ia60u5oDlE-38" value="" style="edgeStyle=none;curved=1;rounded=0;orthogonalLoop=1;jettySize=auto;html=1;fontSize=12;startSize=8;endSize=8;" edge="1" parent="1" source="3faUZpva91Ia60u5oDlE-35" target="3faUZpva91Ia60u5oDlE-37">
          <mxGeometry relative="1" as="geometry" />
        </mxCell>
        <mxCell id="3faUZpva91Ia60u5oDlE-35" value="获取A和B列表差集" style="whiteSpace=wrap;html=1;rounded=0;" vertex="1" parent="1">
          <mxGeometry x="279" y="972" width="120" height="60" as="geometry" />
        </mxCell>
        <mxCell id="3faUZpva91Ia60u5oDlE-40" value="" style="edgeStyle=none;curved=1;rounded=0;orthogonalLoop=1;jettySize=auto;html=1;fontSize=12;startSize=8;endSize=8;" edge="1" parent="1" source="3faUZpva91Ia60u5oDlE-37" target="3faUZpva91Ia60u5oDlE-39">
          <mxGeometry relative="1" as="geometry" />
        </mxCell>
        <mxCell id="3faUZpva91Ia60u5oDlE-37" value="获取A和B列表差集" style="whiteSpace=wrap;html=1;rounded=0;" vertex="1" parent="1">
          <mxGeometry x="279" y="1152" width="120" height="60" as="geometry" />
        </mxCell>
        <mxCell id="3faUZpva91Ia60u5oDlE-42" value="" style="edgeStyle=none;curved=1;rounded=0;orthogonalLoop=1;jettySize=auto;html=1;fontSize=12;startSize=8;endSize=8;" edge="1" parent="1" source="3faUZpva91Ia60u5oDlE-39" target="3faUZpva91Ia60u5oDlE-41">
          <mxGeometry relative="1" as="geometry" />
        </mxCell>
        <mxCell id="3faUZpva91Ia60u5oDlE-44" value="" style="edgeStyle=none;curved=1;rounded=0;orthogonalLoop=1;jettySize=auto;html=1;fontSize=12;startSize=8;endSize=8;" edge="1" parent="1" source="3faUZpva91Ia60u5oDlE-39" target="3faUZpva91Ia60u5oDlE-43">
          <mxGeometry relative="1" as="geometry" />
        </mxCell>
        <mxCell id="3faUZpva91Ia60u5oDlE-39" value="执行爆单恢复" style="whiteSpace=wrap;html=1;rounded=0;" vertex="1" parent="1">
          <mxGeometry x="279" y="1332" width="120" height="60" as="geometry" />
        </mxCell>
        <mxCell id="3faUZpva91Ia60u5oDlE-48" style="edgeStyle=none;curved=1;rounded=0;orthogonalLoop=1;jettySize=auto;html=1;fontSize=12;startSize=8;endSize=8;" edge="1" parent="1" source="3faUZpva91Ia60u5oDlE-41" target="3faUZpva91Ia60u5oDlE-47">
          <mxGeometry relative="1" as="geometry" />
        </mxCell>
        <mxCell id="3faUZpva91Ia60u5oDlE-41" value="执行爆单执行" style="whiteSpace=wrap;html=1;rounded=0;" vertex="1" parent="1">
          <mxGeometry x="281" y="1874" width="120" height="60" as="geometry" />
        </mxCell>
        <mxCell id="3faUZpva91Ia60u5oDlE-47" value="" style="whiteSpace=wrap;html=1;rounded=0;dashed=1;" vertex="1" parent="1">
          <mxGeometry x="544" y="1723.25" width="933" height="361.5" as="geometry" />
        </mxCell>
      </root>
    </mxGraphModel>
  </diagram>
</mxfile>
